# xmcd CD database file
#
# Track frame offsets:
#	150
#	21462
#	41020
#	56790
#	76937
#	92827
#	116607
#	139600
#	153859
#	178362
#	202915
#
# Disc length: 2969 seconds
#
# Revision: 0
# Processed by: cddbd v1.5.2PL0 Copyright (c) Steve Scherf et al.
# Submitted via: CDex 1.51
#
DISCID=920b970b
DTITLE=Nils Berg - Sailors fighting in the dance hall
DYEAR=2007
DGENRE=Jazz
TTITLE0=Sailors fighting in the dance hall
TTITLE1=Domino gold
TTITLE2=Rörstrand
TTITLE3=L.A. fever
TTITLE4=Submerged at the bottom of the ocean
TTITLE5=Ont och klart
TTITLE6=Sunny side
TTITLE7=The rescue
TTITLE8=Gaucho skiing
TTITLE9=Stor björn, liten björn
TTITLE10=Astor on ice
EXTD=YEAR: 2007
EXTT0=
EXTT1=
EXTT2=
EXTT3=
EXTT4=
EXTT5=
EXTT6=
EXTT7=
EXTT8=
EXTT9=
EXTT10=
PLAYORDER=
